<?xml version="1.0" encoding="UTF-8" ?>
<svg version="1.1" width="510" height="990" xmlns="http://www.w3.org/2000/svg">
<rect x="240" y="0" width="30" height="30" fill="#000000" />
<rect x="210" y="30" width="30" height="30" fill="#000000" />
<rect x="240" y="30" width="30" height="30" fill="#000000" />
<rect x="270" y="30" width="30" height="30" fill="#000000" />
<rect x="240" y="60" width="30" height="30" fill="#000000" />
<rect x="240" y="90" width="30" height="30" fill="#000000" />
<rect x="210" y="120" width="30" height="30" fill="#000000" />
<rect x="240" y="120" width="30" height="30" fill="#0277BD" />
<rect x="270" y="120" width="30" height="30" fill="#000000" />
<rect x="210" y="150" width="30" height="30" fill="#000000" />
<rect x="240" y="150" width="30" height="30" fill="#0277BD" />
<rect x="270" y="150" width="30" height="30" fill="#000000" />
<rect x="180" y="180" width="30" height="30" fill="#000000" />
<rect x="210" y="180" width="30" height="30" fill="#0277BD" />
<rect x="240" y="180" width="30" height="30" fill="#0277BD" />
<rect x="270" y="180" width="30" height="30" fill="#01579B" />
<rect x="300" y="180" width="30" height="30" fill="#000000" />
<rect x="180" y="210" width="30" height="30" fill="#000000" />
<rect x="210" y="210" width="30" height="30" fill="#0277BD" />
<rect x="240" y="210" width="30" height="30" fill="#0277BD" />
<rect x="270" y="210" width="30" height="30" fill="#01579B" />
<rect x="300" y="210" width="30" height="30" fill="#000000" />
<rect x="150" y="240" width="30" height="30" fill="#000000" />
<rect x="180" y="240" width="30" height="30" fill="#0277BD" />
<rect x="210" y="240" width="30" height="30" fill="#0277BD" />
<rect x="240" y="240" width="30" height="30" fill="#01579B" />
<rect x="270" y="240" width="30" height="30" fill="#01579B" />
<rect x="300" y="240" width="30" height="30" fill="#01579B" />
<rect x="330" y="240" width="30" height="30" fill="#000000" />
<rect x="150" y="270" width="30" height="30" fill="#000000" />
<rect x="180" y="270" width="30" height="30" fill="#0277BD" />
<rect x="210" y="270" width="30" height="30" fill="#0277BD" />
<rect x="240" y="270" width="30" height="30" fill="#01579B" />
<rect x="270" y="270" width="30" height="30" fill="#01579B" />
<rect x="300" y="270" width="30" height="30" fill="#01579B" />
<rect x="330" y="270" width="30" height="30" fill="#000000" />
<rect x="150" y="300" width="30" height="30" fill="#000000" />
<rect x="180" y="300" width="30" height="30" fill="#000000" />
<rect x="210" y="300" width="30" height="30" fill="#0277BD" />
<rect x="240" y="300" width="30" height="30" fill="#01579B" />
<rect x="270" y="300" width="30" height="30" fill="#01579B" />
<rect x="300" y="300" width="30" height="30" fill="#000000" />
<rect x="330" y="300" width="30" height="30" fill="#000000" />
<rect x="150" y="330" width="30" height="30" fill="#000000" />
<rect x="180" y="330" width="30" height="30" fill="#A1887F" />
<rect x="210" y="330" width="30" height="30" fill="#000000" />
<rect x="240" y="330" width="30" height="30" fill="#000000" />
<rect x="270" y="330" width="30" height="30" fill="#000000" />
<rect x="300" y="330" width="30" height="30" fill="#A1887F" />
<rect x="330" y="330" width="30" height="30" fill="#000000" />
<rect x="150" y="360" width="30" height="30" fill="#000000" />
<rect x="180" y="360" width="30" height="30" fill="#A1887F" />
<rect x="210" y="360" width="30" height="30" fill="#A1887F" />
<rect x="240" y="360" width="30" height="30" fill="#000000" />
<rect x="270" y="360" width="30" height="30" fill="#A1887F" />
<rect x="300" y="360" width="30" height="30" fill="#A1887F" />
<rect x="330" y="360" width="30" height="30" fill="#000000" />
<rect x="150" y="390" width="30" height="30" fill="#000000" />
<rect x="180" y="390" width="30" height="30" fill="#A1887F" />
<rect x="210" y="390" width="30" height="30" fill="#000000" />
<rect x="240" y="390" width="30" height="30" fill="#E0E0E0" />
<rect x="270" y="390" width="30" height="30" fill="#000000" />
<rect x="300" y="390" width="30" height="30" fill="#A1887F" />
<rect x="330" y="390" width="30" height="30" fill="#000000" />
<rect x="150" y="420" width="30" height="30" fill="#000000" />
<rect x="180" y="420" width="30" height="30" fill="#A1887F" />
<rect x="210" y="420" width="30" height="30" fill="#C7B8B2" />
<rect x="240" y="420" width="30" height="30" fill="#000000" />
<rect x="270" y="420" width="30" height="30" fill="#C7B8B2" />
<rect x="300" y="420" width="30" height="30" fill="#A1887F" />
<rect x="330" y="420" width="30" height="30" fill="#000000" />
<rect x="120" y="450" width="30" height="30" fill="#000000" />
<rect x="150" y="450" width="30" height="30" fill="#000000" />
<rect x="180" y="450" width="30" height="30" fill="#A1887F" />
<rect x="210" y="450" width="30" height="30" fill="#C7B8B2" />
<rect x="240" y="450" width="30" height="30" fill="#C7B8B2" />
<rect x="270" y="450" width="30" height="30" fill="#C7B8B2" />
<rect x="300" y="450" width="30" height="30" fill="#A1887F" />
<rect x="330" y="450" width="30" height="30" fill="#000000" />
<rect x="360" y="450" width="30" height="30" fill="#000000" />
<rect x="90" y="480" width="30" height="30" fill="#000000" />
<rect x="120" y="480" width="30" height="30" fill="#0277BD" />
<rect x="150" y="480" width="30" height="30" fill="#0277BD" />
<rect x="180" y="480" width="30" height="30" fill="#000000" />
<rect x="210" y="480" width="30" height="30" fill="#C7B8B2" />
<rect x="240" y="480" width="30" height="30" fill="#C7B8B2" />
<rect x="270" y="480" width="30" height="30" fill="#C7B8B2" />
<rect x="300" y="480" width="30" height="30" fill="#000000" />
<rect x="330" y="480" width="30" height="30" fill="#01579B" />
<rect x="360" y="480" width="30" height="30" fill="#01579B" />
<rect x="390" y="480" width="30" height="30" fill="#000000" />
<rect x="60" y="510" width="30" height="30" fill="#000000" />
<rect x="90" y="510" width="30" height="30" fill="#0277BD" />
<rect x="120" y="510" width="30" height="30" fill="#0277BD" />
<rect x="150" y="510" width="30" height="30" fill="#0277BD" />
<rect x="180" y="510" width="30" height="30" fill="#0277BD" />
<rect x="210" y="510" width="30" height="30" fill="#000000" />
<rect x="240" y="510" width="30" height="30" fill="#000000" />
<rect x="270" y="510" width="30" height="30" fill="#000000" />
<rect x="300" y="510" width="30" height="30" fill="#01579B" />
<rect x="330" y="510" width="30" height="30" fill="#01579B" />
<rect x="360" y="510" width="30" height="30" fill="#01579B" />
<rect x="390" y="510" width="30" height="30" fill="#01579B" />
<rect x="420" y="510" width="30" height="30" fill="#000000" />
<rect x="30" y="540" width="30" height="30" fill="#000000" />
<rect x="60" y="540" width="30" height="30" fill="#0277BD" />
<rect x="90" y="540" width="30" height="30" fill="#0277BD" />
<rect x="120" y="540" width="30" height="30" fill="#0277BD" />
<rect x="150" y="540" width="30" height="30" fill="#0277BD" />
<rect x="180" y="540" width="30" height="30" fill="#0277BD" />
<rect x="210" y="540" width="30" height="30" fill="#0277BD" />
<rect x="240" y="540" width="30" height="30" fill="#0277BD" />
<rect x="270" y="540" width="30" height="30" fill="#01579B" />
<rect x="300" y="540" width="30" height="30" fill="#01579B" />
<rect x="330" y="540" width="30" height="30" fill="#01579B" />
<rect x="360" y="540" width="30" height="30" fill="#01579B" />
<rect x="390" y="540" width="30" height="30" fill="#01579B" />
<rect x="420" y="540" width="30" height="30" fill="#01579B" />
<rect x="450" y="540" width="30" height="30" fill="#000000" />
<rect x="0" y="570" width="30" height="30" fill="#000000" />
<rect x="30" y="570" width="30" height="30" fill="#0277BD" />
<rect x="60" y="570" width="30" height="30" fill="#0277BD" />
<rect x="90" y="570" width="30" height="30" fill="#0277BD" />
<rect x="120" y="570" width="30" height="30" fill="#0277BD" />
<rect x="150" y="570" width="30" height="30" fill="#0277BD" />
<rect x="180" y="570" width="30" height="30" fill="#0277BD" />
<rect x="210" y="570" width="30" height="30" fill="#000000" />
<rect x="240" y="570" width="30" height="30" fill="#000000" />
<rect x="270" y="570" width="30" height="30" fill="#000000" />
<rect x="300" y="570" width="30" height="30" fill="#01579B" />
<rect x="330" y="570" width="30" height="30" fill="#01579B" />
<rect x="360" y="570" width="30" height="30" fill="#01579B" />
<rect x="390" y="570" width="30" height="30" fill="#01579B" />
<rect x="420" y="570" width="30" height="30" fill="#01579B" />
<rect x="450" y="570" width="30" height="30" fill="#01579B" />
<rect x="480" y="570" width="30" height="30" fill="#000000" />
<rect x="0" y="600" width="30" height="30" fill="#000000" />
<rect x="30" y="600" width="30" height="30" fill="#0277BD" />
<rect x="60" y="600" width="30" height="30" fill="#0277BD" />
<rect x="90" y="600" width="30" height="30" fill="#0277BD" />
<rect x="120" y="600" width="30" height="30" fill="#0277BD" />
<rect x="150" y="600" width="30" height="30" fill="#0277BD" />
<rect x="180" y="600" width="30" height="30" fill="#000000" />
<rect x="210" y="600" width="30" height="30" fill="#A1887F" />
<rect x="240" y="600" width="30" height="30" fill="#A1887F" />
<rect x="270" y="600" width="30" height="30" fill="#A1887F" />
<rect x="300" y="600" width="30" height="30" fill="#000000" />
<rect x="330" y="600" width="30" height="30" fill="#01579B" />
<rect x="360" y="600" width="30" height="30" fill="#01579B" />
<rect x="390" y="600" width="30" height="30" fill="#01579B" />
<rect x="420" y="600" width="30" height="30" fill="#01579B" />
<rect x="450" y="600" width="30" height="30" fill="#01579B" />
<rect x="480" y="600" width="30" height="30" fill="#000000" />
<rect x="0" y="630" width="30" height="30" fill="#000000" />
<rect x="30" y="630" width="30" height="30" fill="#0277BD" />
<rect x="60" y="630" width="30" height="30" fill="#0277BD" />
<rect x="90" y="630" width="30" height="30" fill="#0277BD" />
<rect x="120" y="630" width="30" height="30" fill="#0277BD" />
<rect x="150" y="630" width="30" height="30" fill="#000000" />
<rect x="180" y="630" width="30" height="30" fill="#A1887F" />
<rect x="210" y="630" width="30" height="30" fill="#C7B8B2" />
<rect x="240" y="630" width="30" height="30" fill="#C7B8B2" />
<rect x="270" y="630" width="30" height="30" fill="#C7B8B2" />
<rect x="300" y="630" width="30" height="30" fill="#A1887F" />
<rect x="330" y="630" width="30" height="30" fill="#000000" />
<rect x="360" y="630" width="30" height="30" fill="#01579B" />
<rect x="390" y="630" width="30" height="30" fill="#01579B" />
<rect x="420" y="630" width="30" height="30" fill="#01579B" />
<rect x="450" y="630" width="30" height="30" fill="#01579B" />
<rect x="480" y="630" width="30" height="30" fill="#000000" />
<rect x="0" y="660" width="30" height="30" fill="#000000" />
<rect x="30" y="660" width="30" height="30" fill="#0277BD" />
<rect x="60" y="660" width="30" height="30" fill="#0277BD" />
<rect x="90" y="660" width="30" height="30" fill="#0277BD" />
<rect x="120" y="660" width="30" height="30" fill="#000000" />
<rect x="150" y="660" width="30" height="30" fill="#A1887F" />
<rect x="180" y="660" width="30" height="30" fill="#C7B8B2" />
<rect x="210" y="660" width="30" height="30" fill="#C7B8B2" />
<rect x="240" y="660" width="30" height="30" fill="#000000" />
<rect x="270" y="660" width="30" height="30" fill="#C7B8B2" />
<rect x="300" y="660" width="30" height="30" fill="#C7B8B2" />
<rect x="330" y="660" width="30" height="30" fill="#A1887F" />
<rect x="360" y="660" width="30" height="30" fill="#000000" />
<rect x="390" y="660" width="30" height="30" fill="#01579B" />
<rect x="420" y="660" width="30" height="30" fill="#01579B" />
<rect x="450" y="660" width="30" height="30" fill="#01579B" />
<rect x="480" y="660" width="30" height="30" fill="#000000" />
<rect x="0" y="690" width="30" height="30" fill="#000000" />
<rect x="30" y="690" width="30" height="30" fill="#0277BD" />
<rect x="60" y="690" width="30" height="30" fill="#0277BD" />
<rect x="90" y="690" width="30" height="30" fill="#000000" />
<rect x="120" y="690" width="30" height="30" fill="#A1887F" />
<rect x="150" y="690" width="30" height="30" fill="#C7B8B2" />
<rect x="180" y="690" width="30" height="30" fill="#C7B8B2" />
<rect x="210" y="690" width="30" height="30" fill="#000000" />
<rect x="240" y="690" width="30" height="30" fill="#E0E0E0" />
<rect x="270" y="690" width="30" height="30" fill="#000000" />
<rect x="300" y="690" width="30" height="30" fill="#C7B8B2" />
<rect x="330" y="690" width="30" height="30" fill="#C7B8B2" />
<rect x="360" y="690" width="30" height="30" fill="#A1887F" />
<rect x="390" y="690" width="30" height="30" fill="#000000" />
<rect x="420" y="690" width="30" height="30" fill="#01579B" />
<rect x="450" y="690" width="30" height="30" fill="#01579B" />
<rect x="480" y="690" width="30" height="30" fill="#000000" />
<rect x="0" y="720" width="30" height="30" fill="#000000" />
<rect x="30" y="720" width="30" height="30" fill="#0277BD" />
<rect x="60" y="720" width="30" height="30" fill="#000000" />
<rect x="90" y="720" width="30" height="30" fill="#A1887F" />
<rect x="120" y="720" width="30" height="30" fill="#C7B8B2" />
<rect x="150" y="720" width="30" height="30" fill="#C7B8B2" />
<rect x="180" y="720" width="30" height="30" fill="#C7B8B2" />
<rect x="210" y="720" width="30" height="30" fill="#C7B8B2" />
<rect x="240" y="720" width="30" height="30" fill="#000000" />
<rect x="270" y="720" width="30" height="30" fill="#C7B8B2" />
<rect x="300" y="720" width="30" height="30" fill="#C7B8B2" />
<rect x="330" y="720" width="30" height="30" fill="#C7B8B2" />
<rect x="360" y="720" width="30" height="30" fill="#C7B8B2" />
<rect x="390" y="720" width="30" height="30" fill="#A1887F" />
<rect x="420" y="720" width="30" height="30" fill="#000000" />
<rect x="450" y="720" width="30" height="30" fill="#01579B" />
<rect x="480" y="720" width="30" height="30" fill="#000000" />
<rect x="0" y="750" width="30" height="30" fill="#000000" />
<rect x="30" y="750" width="30" height="30" fill="#000000" />
<rect x="60" y="750" width="30" height="30" fill="#A1887F" />
<rect x="90" y="750" width="30" height="30" fill="#C7B8B2" />
<rect x="120" y="750" width="30" height="30" fill="#C7B8B2" />
<rect x="150" y="750" width="30" height="30" fill="#C7B8B2" />
<rect x="180" y="750" width="30" height="30" fill="#C7B8B2" />
<rect x="210" y="750" width="30" height="30" fill="#C7B8B2" />
<rect x="240" y="750" width="30" height="30" fill="#C7B8B2" />
<rect x="270" y="750" width="30" height="30" fill="#C7B8B2" />
<rect x="300" y="750" width="30" height="30" fill="#C7B8B2" />
<rect x="330" y="750" width="30" height="30" fill="#C7B8B2" />
<rect x="360" y="750" width="30" height="30" fill="#C7B8B2" />
<rect x="390" y="750" width="30" height="30" fill="#C7B8B2" />
<rect x="420" y="750" width="30" height="30" fill="#A1887F" />
<rect x="450" y="750" width="30" height="30" fill="#000000" />
<rect x="480" y="750" width="30" height="30" fill="#000000" />
<rect x="0" y="780" width="30" height="30" fill="#000000" />
<rect x="30" y="780" width="30" height="30" fill="#A1887F" />
<rect x="60" y="780" width="30" height="30" fill="#C7B8B2" />
<rect x="90" y="780" width="30" height="30" fill="#A1887F" />
<rect x="120" y="780" width="30" height="30" fill="#C7B8B2" />
<rect x="150" y="780" width="30" height="30" fill="#C7B8B2" />
<rect x="180" y="780" width="30" height="30" fill="#C7B8B2" />
<rect x="210" y="780" width="30" height="30" fill="#000000" />
<rect x="240" y="780" width="30" height="30" fill="#000000" />
<rect x="270" y="780" width="30" height="30" fill="#000000" />
<rect x="300" y="780" width="30" height="30" fill="#C7B8B2" />
<rect x="330" y="780" width="30" height="30" fill="#C7B8B2" />
<rect x="360" y="780" width="30" height="30" fill="#C7B8B2" />
<rect x="390" y="780" width="30" height="30" fill="#A1887F" />
<rect x="420" y="780" width="30" height="30" fill="#C7B8B2" />
<rect x="450" y="780" width="30" height="30" fill="#A1887F" />
<rect x="480" y="780" width="30" height="30" fill="#000000" />
<rect x="0" y="810" width="30" height="30" fill="#000000" />
<rect x="30" y="810" width="30" height="30" fill="#A1887F" />
<rect x="60" y="810" width="30" height="30" fill="#A1887F" />
<rect x="90" y="810" width="30" height="30" fill="#000000" />
<rect x="120" y="810" width="30" height="30" fill="#A1887F" />
<rect x="150" y="810" width="30" height="30" fill="#C7B8B2" />
<rect x="180" y="810" width="30" height="30" fill="#000000" />
<rect x="210" y="810" width="30" height="30" fill="#5D4037" />
<rect x="240" y="810" width="30" height="30" fill="#3E2723" />
<rect x="270" y="810" width="30" height="30" fill="#5D4037" />
<rect x="300" y="810" width="30" height="30" fill="#000000" />
<rect x="330" y="810" width="30" height="30" fill="#C7B8B2" />
<rect x="360" y="810" width="30" height="30" fill="#A1887F" />
<rect x="390" y="810" width="30" height="30" fill="#000000" />
<rect x="420" y="810" width="30" height="30" fill="#A1887F" />
<rect x="450" y="810" width="30" height="30" fill="#A1887F" />
<rect x="480" y="810" width="30" height="30" fill="#000000" />
<rect x="0" y="840" width="30" height="30" fill="#000000" />
<rect x="30" y="840" width="30" height="30" fill="#A1887F" />
<rect x="60" y="840" width="30" height="30" fill="#000000" />
<rect x="90" y="840" width="30" height="30" fill="#E0E0E0" />
<rect x="120" y="840" width="30" height="30" fill="#000000" />
<rect x="150" y="840" width="30" height="30" fill="#C7B8B2" />
<rect x="180" y="840" width="30" height="30" fill="#000000" />
<rect x="210" y="840" width="30" height="30" fill="#5D4037" />
<rect x="240" y="840" width="30" height="30" fill="#3E2723" />
<rect x="270" y="840" width="30" height="30" fill="#5D4037" />
<rect x="300" y="840" width="30" height="30" fill="#000000" />
<rect x="330" y="840" width="30" height="30" fill="#C7B8B2" />
<rect x="360" y="840" width="30" height="30" fill="#000000" />
<rect x="390" y="840" width="30" height="30" fill="#E0E0E0" />
<rect x="420" y="840" width="30" height="30" fill="#000000" />
<rect x="450" y="840" width="30" height="30" fill="#A1887F" />
<rect x="480" y="840" width="30" height="30" fill="#000000" />
<rect x="0" y="870" width="30" height="30" fill="#000000" />
<rect x="30" y="870" width="30" height="30" fill="#A1887F" />
<rect x="60" y="870" width="30" height="30" fill="#000000" />
<rect x="90" y="870" width="30" height="30" fill="#EEEEEE" />
<rect x="120" y="870" width="30" height="30" fill="#000000" />
<rect x="150" y="870" width="30" height="30" fill="#C7B8B2" />
<rect x="180" y="870" width="30" height="30" fill="#000000" />
<rect x="210" y="870" width="30" height="30" fill="#3E2723" />
<rect x="240" y="870" width="30" height="30" fill="#3E2723" />
<rect x="270" y="870" width="30" height="30" fill="#3E2723" />
<rect x="300" y="870" width="30" height="30" fill="#000000" />
<rect x="330" y="870" width="30" height="30" fill="#C7B8B2" />
<rect x="360" y="870" width="30" height="30" fill="#000000" />
<rect x="390" y="870" width="30" height="30" fill="#E0E0E0" />
<rect x="420" y="870" width="30" height="30" fill="#000000" />
<rect x="450" y="870" width="30" height="30" fill="#A1887F" />
<rect x="480" y="870" width="30" height="30" fill="#000000" />
<rect x="0" y="900" width="30" height="30" fill="#000000" />
<rect x="30" y="900" width="30" height="30" fill="#A1887F" />
<rect x="60" y="900" width="30" height="30" fill="#000000" />
<rect x="90" y="900" width="30" height="30" fill="#BDBDBD" />
<rect x="120" y="900" width="30" height="30" fill="#000000" />
<rect x="150" y="900" width="30" height="30" fill="#C7B8B2" />
<rect x="180" y="900" width="30" height="30" fill="#000000" />
<rect x="210" y="900" width="30" height="30" fill="#5D4037" />
<rect x="240" y="900" width="30" height="30" fill="#3E2723" />
<rect x="270" y="900" width="30" height="30" fill="#5D4037" />
<rect x="300" y="900" width="30" height="30" fill="#000000" />
<rect x="330" y="900" width="30" height="30" fill="#C7B8B2" />
<rect x="360" y="900" width="30" height="30" fill="#000000" />
<rect x="390" y="900" width="30" height="30" fill="#BDBDBD" />
<rect x="420" y="900" width="30" height="30" fill="#000000" />
<rect x="450" y="900" width="30" height="30" fill="#A1887F" />
<rect x="480" y="900" width="30" height="30" fill="#000000" />
<rect x="0" y="930" width="30" height="30" fill="#000000" />
<rect x="30" y="930" width="30" height="30" fill="#A1887F" />
<rect x="60" y="930" width="30" height="30" fill="#000000" />
<rect x="90" y="930" width="30" height="30" fill="#BDBDBD" />
<rect x="120" y="930" width="30" height="30" fill="#000000" />
<rect x="150" y="930" width="30" height="30" fill="#C7B8B2" />
<rect x="180" y="930" width="30" height="30" fill="#000000" />
<rect x="210" y="930" width="30" height="30" fill="#5D4037" />
<rect x="240" y="930" width="30" height="30" fill="#3E2723" />
<rect x="270" y="930" width="30" height="30" fill="#5D4037" />
<rect x="300" y="930" width="30" height="30" fill="#000000" />
<rect x="330" y="930" width="30" height="30" fill="#C7B8B2" />
<rect x="360" y="930" width="30" height="30" fill="#000000" />
<rect x="390" y="930" width="30" height="30" fill="#BDBDBD" />
<rect x="420" y="930" width="30" height="30" fill="#000000" />
<rect x="450" y="930" width="30" height="30" fill="#A1887F" />
<rect x="480" y="930" width="30" height="30" fill="#000000" />
<rect x="30" y="960" width="30" height="30" fill="#000000" />
<rect x="60" y="960" width="30" height="30" fill="#000000" />
<rect x="90" y="960" width="30" height="30" fill="#000000" />
<rect x="120" y="960" width="30" height="30" fill="#000000" />
<rect x="150" y="960" width="30" height="30" fill="#000000" />
<rect x="180" y="960" width="30" height="30" fill="#000000" />
<rect x="210" y="960" width="30" height="30" fill="#000000" />
<rect x="240" y="960" width="30" height="30" fill="#000000" />
<rect x="270" y="960" width="30" height="30" fill="#000000" />
<rect x="300" y="960" width="30" height="30" fill="#000000" />
<rect x="330" y="960" width="30" height="30" fill="#000000" />
<rect x="360" y="960" width="30" height="30" fill="#000000" />
<rect x="390" y="960" width="30" height="30" fill="#000000" />
<rect x="420" y="960" width="30" height="30" fill="#000000" />
<rect x="450" y="960" width="30" height="30" fill="#000000" />
</svg>