<?xml version="1.0" encoding="UTF-8" ?>
<svg version="1.1" width="870" height="960" xmlns="http://www.w3.org/2000/svg">
<rect x="420" y="0" width="30" height="30" fill="#000000" />
<rect x="450" y="0" width="30" height="30" fill="#000000" />
<rect x="420" y="30" width="30" height="30" fill="#000000" />
<rect x="450" y="30" width="30" height="30" fill="#FBC02D" />
<rect x="480" y="30" width="30" height="30" fill="#000000" />
<rect x="510" y="30" width="30" height="30" fill="#000000" />
<rect x="420" y="60" width="30" height="30" fill="#000000" />
<rect x="450" y="60" width="30" height="30" fill="#000000" />
<rect x="420" y="90" width="30" height="30" fill="#000000" />
<rect x="390" y="120" width="30" height="30" fill="#000000" />
<rect x="420" y="120" width="30" height="30" fill="#E51C23" />
<rect x="450" y="120" width="30" height="30" fill="#000000" />
<rect x="120" y="150" width="30" height="30" fill="#000000" />
<rect x="150" y="150" width="30" height="30" fill="#000000" />
<rect x="390" y="150" width="30" height="30" fill="#000000" />
<rect x="420" y="150" width="30" height="30" fill="#E51C23" />
<rect x="450" y="150" width="30" height="30" fill="#000000" />
<rect x="720" y="150" width="30" height="30" fill="#000000" />
<rect x="750" y="150" width="30" height="30" fill="#000000" />
<rect x="120" y="180" width="30" height="30" fill="#000000" />
<rect x="150" y="180" width="30" height="30" fill="#FBC02D" />
<rect x="180" y="180" width="30" height="30" fill="#000000" />
<rect x="210" y="180" width="30" height="30" fill="#000000" />
<rect x="390" y="180" width="30" height="30" fill="#000000" />
<rect x="420" y="180" width="30" height="30" fill="#E51C23" />
<rect x="450" y="180" width="30" height="30" fill="#000000" />
<rect x="720" y="180" width="30" height="30" fill="#000000" />
<rect x="750" y="180" width="30" height="30" fill="#FBC02D" />
<rect x="780" y="180" width="30" height="30" fill="#000000" />
<rect x="810" y="180" width="30" height="30" fill="#000000" />
<rect x="120" y="210" width="30" height="30" fill="#000000" />
<rect x="150" y="210" width="30" height="30" fill="#000000" />
<rect x="360" y="210" width="30" height="30" fill="#000000" />
<rect x="390" y="210" width="30" height="30" fill="#B0120A" />
<rect x="420" y="210" width="30" height="30" fill="#E51C23" />
<rect x="450" y="210" width="30" height="30" fill="#B0120A" />
<rect x="480" y="210" width="30" height="30" fill="#000000" />
<rect x="720" y="210" width="30" height="30" fill="#000000" />
<rect x="750" y="210" width="30" height="30" fill="#000000" />
<rect x="120" y="240" width="30" height="30" fill="#000000" />
<rect x="360" y="240" width="30" height="30" fill="#000000" />
<rect x="390" y="240" width="30" height="30" fill="#B0120A" />
<rect x="420" y="240" width="30" height="30" fill="#B0120A" />
<rect x="450" y="240" width="30" height="30" fill="#B0120A" />
<rect x="480" y="240" width="30" height="30" fill="#000000" />
<rect x="720" y="240" width="30" height="30" fill="#000000" />
<rect x="90" y="270" width="30" height="30" fill="#000000" />
<rect x="120" y="270" width="30" height="30" fill="#E51C23" />
<rect x="150" y="270" width="30" height="30" fill="#000000" />
<rect x="300" y="270" width="30" height="30" fill="#000000" />
<rect x="330" y="270" width="30" height="30" fill="#000000" />
<rect x="360" y="270" width="30" height="30" fill="#B0120A" />
<rect x="390" y="270" width="30" height="30" fill="#000000" />
<rect x="420" y="270" width="30" height="30" fill="#000000" />
<rect x="450" y="270" width="30" height="30" fill="#000000" />
<rect x="480" y="270" width="30" height="30" fill="#B0120A" />
<rect x="510" y="270" width="30" height="30" fill="#000000" />
<rect x="540" y="270" width="30" height="30" fill="#000000" />
<rect x="690" y="270" width="30" height="30" fill="#000000" />
<rect x="720" y="270" width="30" height="30" fill="#E51C23" />
<rect x="750" y="270" width="30" height="30" fill="#000000" />
<rect x="90" y="300" width="30" height="30" fill="#000000" />
<rect x="120" y="300" width="30" height="30" fill="#E51C23" />
<rect x="150" y="300" width="30" height="30" fill="#000000" />
<rect x="300" y="300" width="30" height="30" fill="#000000" />
<rect x="330" y="300" width="30" height="30" fill="#A1887F" />
<rect x="360" y="300" width="30" height="30" fill="#000000" />
<rect x="390" y="300" width="30" height="30" fill="#000000" />
<rect x="420" y="300" width="30" height="30" fill="#C7B8B2" />
<rect x="450" y="300" width="30" height="30" fill="#000000" />
<rect x="480" y="300" width="30" height="30" fill="#000000" />
<rect x="510" y="300" width="30" height="30" fill="#A1887F" />
<rect x="540" y="300" width="30" height="30" fill="#000000" />
<rect x="690" y="300" width="30" height="30" fill="#000000" />
<rect x="720" y="300" width="30" height="30" fill="#E51C23" />
<rect x="750" y="300" width="30" height="30" fill="#000000" />
<rect x="90" y="330" width="30" height="30" fill="#000000" />
<rect x="120" y="330" width="30" height="30" fill="#E51C23" />
<rect x="150" y="330" width="30" height="30" fill="#000000" />
<rect x="300" y="330" width="30" height="30" fill="#000000" />
<rect x="330" y="330" width="30" height="30" fill="#A1887F" />
<rect x="360" y="330" width="30" height="30" fill="#C7B8B2" />
<rect x="390" y="330" width="30" height="30" fill="#C7B8B2" />
<rect x="420" y="330" width="30" height="30" fill="#C7B8B2" />
<rect x="450" y="330" width="30" height="30" fill="#C7B8B2" />
<rect x="480" y="330" width="30" height="30" fill="#C7B8B2" />
<rect x="510" y="330" width="30" height="30" fill="#A1887F" />
<rect x="540" y="330" width="30" height="30" fill="#000000" />
<rect x="690" y="330" width="30" height="30" fill="#000000" />
<rect x="720" y="330" width="30" height="30" fill="#E51C23" />
<rect x="750" y="330" width="30" height="30" fill="#000000" />
<rect x="60" y="360" width="30" height="30" fill="#000000" />
<rect x="90" y="360" width="30" height="30" fill="#B0120A" />
<rect x="120" y="360" width="30" height="30" fill="#E51C23" />
<rect x="150" y="360" width="30" height="30" fill="#B0120A" />
<rect x="180" y="360" width="30" height="30" fill="#000000" />
<rect x="300" y="360" width="30" height="30" fill="#000000" />
<rect x="330" y="360" width="30" height="30" fill="#A1887F" />
<rect x="360" y="360" width="30" height="30" fill="#212121" />
<rect x="390" y="360" width="30" height="30" fill="#C7B8B2" />
<rect x="420" y="360" width="30" height="30" fill="#212121" />
<rect x="450" y="360" width="30" height="30" fill="#C7B8B2" />
<rect x="480" y="360" width="30" height="30" fill="#212121" />
<rect x="510" y="360" width="30" height="30" fill="#A1887F" />
<rect x="540" y="360" width="30" height="30" fill="#000000" />
<rect x="660" y="360" width="30" height="30" fill="#000000" />
<rect x="690" y="360" width="30" height="30" fill="#B0120A" />
<rect x="720" y="360" width="30" height="30" fill="#E51C23" />
<rect x="750" y="360" width="30" height="30" fill="#B0120A" />
<rect x="780" y="360" width="30" height="30" fill="#000000" />
<rect x="60" y="390" width="30" height="30" fill="#000000" />
<rect x="90" y="390" width="30" height="30" fill="#B0120A" />
<rect x="120" y="390" width="30" height="30" fill="#B0120A" />
<rect x="150" y="390" width="30" height="30" fill="#B0120A" />
<rect x="180" y="390" width="30" height="30" fill="#000000" />
<rect x="300" y="390" width="30" height="30" fill="#000000" />
<rect x="330" y="390" width="30" height="30" fill="#A1887F" />
<rect x="360" y="390" width="30" height="30" fill="#A1887F" />
<rect x="390" y="390" width="30" height="30" fill="#C7B8B2" />
<rect x="420" y="390" width="30" height="30" fill="#C7B8B2" />
<rect x="450" y="390" width="30" height="30" fill="#C7B8B2" />
<rect x="480" y="390" width="30" height="30" fill="#A1887F" />
<rect x="510" y="390" width="30" height="30" fill="#A1887F" />
<rect x="540" y="390" width="30" height="30" fill="#000000" />
<rect x="660" y="390" width="30" height="30" fill="#000000" />
<rect x="690" y="390" width="30" height="30" fill="#B0120A" />
<rect x="720" y="390" width="30" height="30" fill="#B0120A" />
<rect x="750" y="390" width="30" height="30" fill="#B0120A" />
<rect x="780" y="390" width="30" height="30" fill="#000000" />
<rect x="0" y="420" width="30" height="30" fill="#000000" />
<rect x="30" y="420" width="30" height="30" fill="#000000" />
<rect x="60" y="420" width="30" height="30" fill="#B0120A" />
<rect x="90" y="420" width="30" height="30" fill="#000000" />
<rect x="120" y="420" width="30" height="30" fill="#000000" />
<rect x="150" y="420" width="30" height="30" fill="#000000" />
<rect x="180" y="420" width="30" height="30" fill="#B0120A" />
<rect x="210" y="420" width="30" height="30" fill="#000000" />
<rect x="240" y="420" width="30" height="30" fill="#000000" />
<rect x="330" y="420" width="30" height="30" fill="#000000" />
<rect x="360" y="420" width="30" height="30" fill="#A1887F" />
<rect x="390" y="420" width="30" height="30" fill="#A1887F" />
<rect x="420" y="420" width="30" height="30" fill="#A1887F" />
<rect x="450" y="420" width="30" height="30" fill="#A1887F" />
<rect x="480" y="420" width="30" height="30" fill="#A1887F" />
<rect x="510" y="420" width="30" height="30" fill="#000000" />
<rect x="600" y="420" width="30" height="30" fill="#000000" />
<rect x="630" y="420" width="30" height="30" fill="#000000" />
<rect x="660" y="420" width="30" height="30" fill="#B0120A" />
<rect x="690" y="420" width="30" height="30" fill="#000000" />
<rect x="720" y="420" width="30" height="30" fill="#000000" />
<rect x="750" y="420" width="30" height="30" fill="#000000" />
<rect x="780" y="420" width="30" height="30" fill="#B0120A" />
<rect x="810" y="420" width="30" height="30" fill="#000000" />
<rect x="840" y="420" width="30" height="30" fill="#000000" />
<rect x="0" y="450" width="30" height="30" fill="#000000" />
<rect x="30" y="450" width="30" height="30" fill="#A1887F" />
<rect x="60" y="450" width="30" height="30" fill="#000000" />
<rect x="90" y="450" width="30" height="30" fill="#000000" />
<rect x="120" y="450" width="30" height="30" fill="#C7B8B2" />
<rect x="150" y="450" width="30" height="30" fill="#000000" />
<rect x="180" y="450" width="30" height="30" fill="#000000" />
<rect x="210" y="450" width="30" height="30" fill="#A1887F" />
<rect x="240" y="450" width="30" height="30" fill="#000000" />
<rect x="330" y="450" width="30" height="30" fill="#000000" />
<rect x="360" y="450" width="30" height="30" fill="#A1887F" />
<rect x="390" y="450" width="30" height="30" fill="#A1887F" />
<rect x="420" y="450" width="30" height="30" fill="#A1887F" />
<rect x="450" y="450" width="30" height="30" fill="#A1887F" />
<rect x="480" y="450" width="30" height="30" fill="#A1887F" />
<rect x="510" y="450" width="30" height="30" fill="#000000" />
<rect x="600" y="450" width="30" height="30" fill="#000000" />
<rect x="630" y="450" width="30" height="30" fill="#A1887F" />
<rect x="660" y="450" width="30" height="30" fill="#000000" />
<rect x="690" y="450" width="30" height="30" fill="#000000" />
<rect x="720" y="450" width="30" height="30" fill="#C7B8B2" />
<rect x="750" y="450" width="30" height="30" fill="#000000" />
<rect x="780" y="450" width="30" height="30" fill="#000000" />
<rect x="810" y="450" width="30" height="30" fill="#A1887F" />
<rect x="840" y="450" width="30" height="30" fill="#000000" />
<rect x="0" y="480" width="30" height="30" fill="#000000" />
<rect x="30" y="480" width="30" height="30" fill="#A1887F" />
<rect x="60" y="480" width="30" height="30" fill="#C7B8B2" />
<rect x="90" y="480" width="30" height="30" fill="#C7B8B2" />
<rect x="120" y="480" width="30" height="30" fill="#C7B8B2" />
<rect x="150" y="480" width="30" height="30" fill="#C7B8B2" />
<rect x="180" y="480" width="30" height="30" fill="#C7B8B2" />
<rect x="210" y="480" width="30" height="30" fill="#A1887F" />
<rect x="240" y="480" width="30" height="30" fill="#000000" />
<rect x="270" y="480" width="30" height="30" fill="#000000" />
<rect x="330" y="480" width="30" height="30" fill="#000000" />
<rect x="360" y="480" width="30" height="30" fill="#000000" />
<rect x="390" y="480" width="30" height="30" fill="#000000" />
<rect x="420" y="480" width="30" height="30" fill="#A1887F" />
<rect x="450" y="480" width="30" height="30" fill="#000000" />
<rect x="480" y="480" width="30" height="30" fill="#000000" />
<rect x="510" y="480" width="30" height="30" fill="#000000" />
<rect x="570" y="480" width="30" height="30" fill="#000000" />
<rect x="600" y="480" width="30" height="30" fill="#000000" />
<rect x="630" y="480" width="30" height="30" fill="#A1887F" />
<rect x="660" y="480" width="30" height="30" fill="#C7B8B2" />
<rect x="690" y="480" width="30" height="30" fill="#C7B8B2" />
<rect x="720" y="480" width="30" height="30" fill="#C7B8B2" />
<rect x="750" y="480" width="30" height="30" fill="#C7B8B2" />
<rect x="780" y="480" width="30" height="30" fill="#C7B8B2" />
<rect x="810" y="480" width="30" height="30" fill="#A1887F" />
<rect x="840" y="480" width="30" height="30" fill="#000000" />
<rect x="0" y="510" width="30" height="30" fill="#000000" />
<rect x="30" y="510" width="30" height="30" fill="#A1887F" />
<rect x="60" y="510" width="30" height="30" fill="#A1887F" />
<rect x="90" y="510" width="30" height="30" fill="#C7B8B2" />
<rect x="120" y="510" width="30" height="30" fill="#C7B8B2" />
<rect x="150" y="510" width="30" height="30" fill="#C7B8B2" />
<rect x="180" y="510" width="30" height="30" fill="#A1887F" />
<rect x="210" y="510" width="30" height="30" fill="#A1887F" />
<rect x="240" y="510" width="30" height="30" fill="#000000" />
<rect x="270" y="510" width="30" height="30" fill="#000000" />
<rect x="300" y="510" width="30" height="30" fill="#000000" />
<rect x="330" y="510" width="30" height="30" fill="#000000" />
<rect x="360" y="510" width="30" height="30" fill="#C7B8B2" />
<rect x="390" y="510" width="30" height="30" fill="#000000" />
<rect x="420" y="510" width="30" height="30" fill="#000000" />
<rect x="450" y="510" width="30" height="30" fill="#000000" />
<rect x="480" y="510" width="30" height="30" fill="#C7B8B2" />
<rect x="510" y="510" width="30" height="30" fill="#000000" />
<rect x="540" y="510" width="30" height="30" fill="#000000" />
<rect x="570" y="510" width="30" height="30" fill="#000000" />
<rect x="600" y="510" width="30" height="30" fill="#000000" />
<rect x="630" y="510" width="30" height="30" fill="#A1887F" />
<rect x="660" y="510" width="30" height="30" fill="#A1887F" />
<rect x="690" y="510" width="30" height="30" fill="#C7B8B2" />
<rect x="720" y="510" width="30" height="30" fill="#C7B8B2" />
<rect x="750" y="510" width="30" height="30" fill="#C7B8B2" />
<rect x="780" y="510" width="30" height="30" fill="#A1887F" />
<rect x="810" y="510" width="30" height="30" fill="#A1887F" />
<rect x="840" y="510" width="30" height="30" fill="#000000" />
<rect x="30" y="540" width="30" height="30" fill="#000000" />
<rect x="60" y="540" width="30" height="30" fill="#A1887F" />
<rect x="90" y="540" width="30" height="30" fill="#A1887F" />
<rect x="120" y="540" width="30" height="30" fill="#A1887F" />
<rect x="150" y="540" width="30" height="30" fill="#A1887F" />
<rect x="180" y="540" width="30" height="30" fill="#A1887F" />
<rect x="210" y="540" width="30" height="30" fill="#000000" />
<rect x="240" y="540" width="30" height="30" fill="#A1887F" />
<rect x="270" y="540" width="30" height="30" fill="#C7B8B2" />
<rect x="300" y="540" width="30" height="30" fill="#C7B8B2" />
<rect x="330" y="540" width="30" height="30" fill="#C7B8B2" />
<rect x="360" y="540" width="30" height="30" fill="#C7B8B2" />
<rect x="390" y="540" width="30" height="30" fill="#C7B8B2" />
<rect x="420" y="540" width="30" height="30" fill="#C7B8B2" />
<rect x="450" y="540" width="30" height="30" fill="#C7B8B2" />
<rect x="480" y="540" width="30" height="30" fill="#C7B8B2" />
<rect x="510" y="540" width="30" height="30" fill="#C7B8B2" />
<rect x="540" y="540" width="30" height="30" fill="#C7B8B2" />
<rect x="570" y="540" width="30" height="30" fill="#C7B8B2" />
<rect x="600" y="540" width="30" height="30" fill="#A1887F" />
<rect x="630" y="540" width="30" height="30" fill="#000000" />
<rect x="660" y="540" width="30" height="30" fill="#A1887F" />
<rect x="690" y="540" width="30" height="30" fill="#A1887F" />
<rect x="720" y="540" width="30" height="30" fill="#A1887F" />
<rect x="750" y="540" width="30" height="30" fill="#A1887F" />
<rect x="780" y="540" width="30" height="30" fill="#A1887F" />
<rect x="810" y="540" width="30" height="30" fill="#000000" />
<rect x="30" y="570" width="30" height="30" fill="#000000" />
<rect x="60" y="570" width="30" height="30" fill="#A1887F" />
<rect x="90" y="570" width="30" height="30" fill="#A1887F" />
<rect x="120" y="570" width="30" height="30" fill="#A1887F" />
<rect x="150" y="570" width="30" height="30" fill="#A1887F" />
<rect x="180" y="570" width="30" height="30" fill="#A1887F" />
<rect x="210" y="570" width="30" height="30" fill="#000000" />
<rect x="240" y="570" width="30" height="30" fill="#A1887F" />
<rect x="270" y="570" width="30" height="30" fill="#C7B8B2" />
<rect x="300" y="570" width="30" height="30" fill="#212121" />
<rect x="330" y="570" width="30" height="30" fill="#C7B8B2" />
<rect x="360" y="570" width="30" height="30" fill="#212121" />
<rect x="390" y="570" width="30" height="30" fill="#C7B8B2" />
<rect x="420" y="570" width="30" height="30" fill="#212121" />
<rect x="450" y="570" width="30" height="30" fill="#C7B8B2" />
<rect x="480" y="570" width="30" height="30" fill="#212121" />
<rect x="510" y="570" width="30" height="30" fill="#C7B8B2" />
<rect x="540" y="570" width="30" height="30" fill="#212121" />
<rect x="570" y="570" width="30" height="30" fill="#C7B8B2" />
<rect x="600" y="570" width="30" height="30" fill="#A1887F" />
<rect x="630" y="570" width="30" height="30" fill="#000000" />
<rect x="660" y="570" width="30" height="30" fill="#A1887F" />
<rect x="690" y="570" width="30" height="30" fill="#A1887F" />
<rect x="720" y="570" width="30" height="30" fill="#A1887F" />
<rect x="750" y="570" width="30" height="30" fill="#A1887F" />
<rect x="780" y="570" width="30" height="30" fill="#A1887F" />
<rect x="810" y="570" width="30" height="30" fill="#000000" />
<rect x="30" y="600" width="30" height="30" fill="#000000" />
<rect x="60" y="600" width="30" height="30" fill="#A1887F" />
<rect x="90" y="600" width="30" height="30" fill="#C7B8B2" />
<rect x="120" y="600" width="30" height="30" fill="#C7B8B2" />
<rect x="150" y="600" width="30" height="30" fill="#C7B8B2" />
<rect x="180" y="600" width="30" height="30" fill="#A1887F" />
<rect x="210" y="600" width="30" height="30" fill="#000000" />
<rect x="240" y="600" width="30" height="30" fill="#A1887F" />
<rect x="270" y="600" width="30" height="30" fill="#A1887F" />
<rect x="300" y="600" width="30" height="30" fill="#C7B8B2" />
<rect x="330" y="600" width="30" height="30" fill="#C7B8B2" />
<rect x="360" y="600" width="30" height="30" fill="#C7B8B2" />
<rect x="390" y="600" width="30" height="30" fill="#C7B8B2" />
<rect x="420" y="600" width="30" height="30" fill="#C7B8B2" />
<rect x="450" y="600" width="30" height="30" fill="#C7B8B2" />
<rect x="480" y="600" width="30" height="30" fill="#C7B8B2" />
<rect x="510" y="600" width="30" height="30" fill="#C7B8B2" />
<rect x="540" y="600" width="30" height="30" fill="#C7B8B2" />
<rect x="570" y="600" width="30" height="30" fill="#A1887F" />
<rect x="600" y="600" width="30" height="30" fill="#A1887F" />
<rect x="630" y="600" width="30" height="30" fill="#000000" />
<rect x="660" y="600" width="30" height="30" fill="#A1887F" />
<rect x="690" y="600" width="30" height="30" fill="#C7B8B2" />
<rect x="720" y="600" width="30" height="30" fill="#C7B8B2" />
<rect x="750" y="600" width="30" height="30" fill="#C7B8B2" />
<rect x="780" y="600" width="30" height="30" fill="#A1887F" />
<rect x="810" y="600" width="30" height="30" fill="#000000" />
<rect x="30" y="630" width="30" height="30" fill="#000000" />
<rect x="60" y="630" width="30" height="30" fill="#A1887F" />
<rect x="90" y="630" width="30" height="30" fill="#C7B8B2" />
<rect x="120" y="630" width="30" height="30" fill="#212121" />
<rect x="150" y="630" width="30" height="30" fill="#C7B8B2" />
<rect x="180" y="630" width="30" height="30" fill="#A1887F" />
<rect x="210" y="630" width="30" height="30" fill="#000000" />
<rect x="240" y="630" width="30" height="30" fill="#A1887F" />
<rect x="270" y="630" width="30" height="30" fill="#A1887F" />
<rect x="300" y="630" width="30" height="30" fill="#A1887F" />
<rect x="330" y="630" width="30" height="30" fill="#A1887F" />
<rect x="360" y="630" width="30" height="30" fill="#A1887F" />
<rect x="390" y="630" width="30" height="30" fill="#A1887F" />
<rect x="420" y="630" width="30" height="30" fill="#A1887F" />
<rect x="450" y="630" width="30" height="30" fill="#A1887F" />
<rect x="480" y="630" width="30" height="30" fill="#A1887F" />
<rect x="510" y="630" width="30" height="30" fill="#A1887F" />
<rect x="540" y="630" width="30" height="30" fill="#A1887F" />
<rect x="570" y="630" width="30" height="30" fill="#A1887F" />
<rect x="600" y="630" width="30" height="30" fill="#A1887F" />
<rect x="630" y="630" width="30" height="30" fill="#000000" />
<rect x="660" y="630" width="30" height="30" fill="#A1887F" />
<rect x="690" y="630" width="30" height="30" fill="#C7B8B2" />
<rect x="720" y="630" width="30" height="30" fill="#212121" />
<rect x="750" y="630" width="30" height="30" fill="#C7B8B2" />
<rect x="780" y="630" width="30" height="30" fill="#A1887F" />
<rect x="810" y="630" width="30" height="30" fill="#000000" />
<rect x="30" y="660" width="30" height="30" fill="#000000" />
<rect x="60" y="660" width="30" height="30" fill="#A1887F" />
<rect x="90" y="660" width="30" height="30" fill="#C7B8B2" />
<rect x="120" y="660" width="30" height="30" fill="#C7B8B2" />
<rect x="150" y="660" width="30" height="30" fill="#C7B8B2" />
<rect x="180" y="660" width="30" height="30" fill="#A1887F" />
<rect x="210" y="660" width="30" height="30" fill="#000000" />
<rect x="240" y="660" width="30" height="30" fill="#000000" />
<rect x="270" y="660" width="30" height="30" fill="#000000" />
<rect x="300" y="660" width="30" height="30" fill="#A1887F" />
<rect x="330" y="660" width="30" height="30" fill="#000000" />
<rect x="360" y="660" width="30" height="30" fill="#000000" />
<rect x="390" y="660" width="30" height="30" fill="#000000" />
<rect x="420" y="660" width="30" height="30" fill="#A1887F" />
<rect x="450" y="660" width="30" height="30" fill="#000000" />
<rect x="480" y="660" width="30" height="30" fill="#000000" />
<rect x="510" y="660" width="30" height="30" fill="#000000" />
<rect x="540" y="660" width="30" height="30" fill="#A1887F" />
<rect x="570" y="660" width="30" height="30" fill="#000000" />
<rect x="600" y="660" width="30" height="30" fill="#000000" />
<rect x="630" y="660" width="30" height="30" fill="#000000" />
<rect x="660" y="660" width="30" height="30" fill="#A1887F" />
<rect x="690" y="660" width="30" height="30" fill="#C7B8B2" />
<rect x="720" y="660" width="30" height="30" fill="#C7B8B2" />
<rect x="750" y="660" width="30" height="30" fill="#C7B8B2" />
<rect x="780" y="660" width="30" height="30" fill="#A1887F" />
<rect x="810" y="660" width="30" height="30" fill="#000000" />
<rect x="30" y="690" width="30" height="30" fill="#000000" />
<rect x="60" y="690" width="30" height="30" fill="#A1887F" />
<rect x="90" y="690" width="30" height="30" fill="#C7B8B2" />
<rect x="120" y="690" width="30" height="30" fill="#212121" />
<rect x="150" y="690" width="30" height="30" fill="#C7B8B2" />
<rect x="180" y="690" width="30" height="30" fill="#A1887F" />
<rect x="210" y="690" width="30" height="30" fill="#000000" />
<rect x="240" y="690" width="30" height="30" fill="#A1887F" />
<rect x="270" y="690" width="30" height="30" fill="#000000" />
<rect x="300" y="690" width="30" height="30" fill="#000000" />
<rect x="330" y="690" width="30" height="30" fill="#000000" />
<rect x="360" y="690" width="30" height="30" fill="#C7B8B2" />
<rect x="390" y="690" width="30" height="30" fill="#000000" />
<rect x="420" y="690" width="30" height="30" fill="#000000" />
<rect x="450" y="690" width="30" height="30" fill="#000000" />
<rect x="480" y="690" width="30" height="30" fill="#C7B8B2" />
<rect x="510" y="690" width="30" height="30" fill="#000000" />
<rect x="540" y="690" width="30" height="30" fill="#000000" />
<rect x="570" y="690" width="30" height="30" fill="#000000" />
<rect x="600" y="690" width="30" height="30" fill="#A1887F" />
<rect x="630" y="690" width="30" height="30" fill="#000000" />
<rect x="660" y="690" width="30" height="30" fill="#A1887F" />
<rect x="690" y="690" width="30" height="30" fill="#C7B8B2" />
<rect x="720" y="690" width="30" height="30" fill="#212121" />
<rect x="750" y="690" width="30" height="30" fill="#C7B8B2" />
<rect x="780" y="690" width="30" height="30" fill="#A1887F" />
<rect x="810" y="690" width="30" height="30" fill="#000000" />
<rect x="30" y="720" width="30" height="30" fill="#000000" />
<rect x="60" y="720" width="30" height="30" fill="#A1887F" />
<rect x="90" y="720" width="30" height="30" fill="#C7B8B2" />
<rect x="120" y="720" width="30" height="30" fill="#C7B8B2" />
<rect x="150" y="720" width="30" height="30" fill="#C7B8B2" />
<rect x="180" y="720" width="30" height="30" fill="#A1887F" />
<rect x="210" y="720" width="30" height="30" fill="#000000" />
<rect x="240" y="720" width="30" height="30" fill="#A1887F" />
<rect x="270" y="720" width="30" height="30" fill="#C7B8B2" />
<rect x="300" y="720" width="30" height="30" fill="#C7B8B2" />
<rect x="330" y="720" width="30" height="30" fill="#C7B8B2" />
<rect x="360" y="720" width="30" height="30" fill="#C7B8B2" />
<rect x="390" y="720" width="30" height="30" fill="#C7B8B2" />
<rect x="420" y="720" width="30" height="30" fill="#C7B8B2" />
<rect x="450" y="720" width="30" height="30" fill="#C7B8B2" />
<rect x="480" y="720" width="30" height="30" fill="#C7B8B2" />
<rect x="510" y="720" width="30" height="30" fill="#C7B8B2" />
<rect x="540" y="720" width="30" height="30" fill="#C7B8B2" />
<rect x="570" y="720" width="30" height="30" fill="#C7B8B2" />
<rect x="600" y="720" width="30" height="30" fill="#A1887F" />
<rect x="630" y="720" width="30" height="30" fill="#000000" />
<rect x="660" y="720" width="30" height="30" fill="#A1887F" />
<rect x="690" y="720" width="30" height="30" fill="#C7B8B2" />
<rect x="720" y="720" width="30" height="30" fill="#C7B8B2" />
<rect x="750" y="720" width="30" height="30" fill="#C7B8B2" />
<rect x="780" y="720" width="30" height="30" fill="#A1887F" />
<rect x="810" y="720" width="30" height="30" fill="#000000" />
<rect x="30" y="750" width="30" height="30" fill="#000000" />
<rect x="60" y="750" width="30" height="30" fill="#A1887F" />
<rect x="90" y="750" width="30" height="30" fill="#C7B8B2" />
<rect x="120" y="750" width="30" height="30" fill="#212121" />
<rect x="150" y="750" width="30" height="30" fill="#C7B8B2" />
<rect x="180" y="750" width="30" height="30" fill="#A1887F" />
<rect x="210" y="750" width="30" height="30" fill="#000000" />
<rect x="240" y="750" width="30" height="30" fill="#A1887F" />
<rect x="270" y="750" width="30" height="30" fill="#A1887F" />
<rect x="300" y="750" width="30" height="30" fill="#C7B8B2" />
<rect x="330" y="750" width="30" height="30" fill="#C7B8B2" />
<rect x="360" y="750" width="30" height="30" fill="#000000" />
<rect x="390" y="750" width="30" height="30" fill="#000000" />
<rect x="420" y="750" width="30" height="30" fill="#000000" />
<rect x="450" y="750" width="30" height="30" fill="#000000" />
<rect x="480" y="750" width="30" height="30" fill="#000000" />
<rect x="510" y="750" width="30" height="30" fill="#C7B8B2" />
<rect x="540" y="750" width="30" height="30" fill="#C7B8B2" />
<rect x="570" y="750" width="30" height="30" fill="#A1887F" />
<rect x="600" y="750" width="30" height="30" fill="#A1887F" />
<rect x="630" y="750" width="30" height="30" fill="#000000" />
<rect x="660" y="750" width="30" height="30" fill="#A1887F" />
<rect x="690" y="750" width="30" height="30" fill="#C7B8B2" />
<rect x="720" y="750" width="30" height="30" fill="#212121" />
<rect x="750" y="750" width="30" height="30" fill="#C7B8B2" />
<rect x="780" y="750" width="30" height="30" fill="#A1887F" />
<rect x="810" y="750" width="30" height="30" fill="#000000" />
<rect x="30" y="780" width="30" height="30" fill="#000000" />
<rect x="60" y="780" width="30" height="30" fill="#A1887F" />
<rect x="90" y="780" width="30" height="30" fill="#C7B8B2" />
<rect x="120" y="780" width="30" height="30" fill="#C7B8B2" />
<rect x="150" y="780" width="30" height="30" fill="#C7B8B2" />
<rect x="180" y="780" width="30" height="30" fill="#A1887F" />
<rect x="210" y="780" width="30" height="30" fill="#000000" />
<rect x="240" y="780" width="30" height="30" fill="#A1887F" />
<rect x="270" y="780" width="30" height="30" fill="#C7B8B2" />
<rect x="300" y="780" width="30" height="30" fill="#C7B8B2" />
<rect x="330" y="780" width="30" height="30" fill="#000000" />
<rect x="360" y="780" width="30" height="30" fill="#5D4037" />
<rect x="390" y="780" width="30" height="30" fill="#5D4037" />
<rect x="420" y="780" width="30" height="30" fill="#3E2723" />
<rect x="450" y="780" width="30" height="30" fill="#5D4037" />
<rect x="480" y="780" width="30" height="30" fill="#5D4037" />
<rect x="510" y="780" width="30" height="30" fill="#000000" />
<rect x="540" y="780" width="30" height="30" fill="#C7B8B2" />
<rect x="570" y="780" width="30" height="30" fill="#C7B8B2" />
<rect x="600" y="780" width="30" height="30" fill="#A1887F" />
<rect x="630" y="780" width="30" height="30" fill="#000000" />
<rect x="660" y="780" width="30" height="30" fill="#A1887F" />
<rect x="690" y="780" width="30" height="30" fill="#C7B8B2" />
<rect x="720" y="780" width="30" height="30" fill="#C7B8B2" />
<rect x="750" y="780" width="30" height="30" fill="#C7B8B2" />
<rect x="780" y="780" width="30" height="30" fill="#A1887F" />
<rect x="810" y="780" width="30" height="30" fill="#000000" />
<rect x="30" y="810" width="30" height="30" fill="#000000" />
<rect x="60" y="810" width="30" height="30" fill="#A1887F" />
<rect x="90" y="810" width="30" height="30" fill="#C7B8B2" />
<rect x="120" y="810" width="30" height="30" fill="#C7B8B2" />
<rect x="150" y="810" width="30" height="30" fill="#C7B8B2" />
<rect x="180" y="810" width="30" height="30" fill="#A1887F" />
<rect x="210" y="810" width="30" height="30" fill="#000000" />
<rect x="240" y="810" width="30" height="30" fill="#A1887F" />
<rect x="270" y="810" width="30" height="30" fill="#A1887F" />
<rect x="300" y="810" width="30" height="30" fill="#C7B8B2" />
<rect x="330" y="810" width="30" height="30" fill="#000000" />
<rect x="360" y="810" width="30" height="30" fill="#3E2723" />
<rect x="390" y="810" width="30" height="30" fill="#3E2723" />
<rect x="420" y="810" width="30" height="30" fill="#3E2723" />
<rect x="450" y="810" width="30" height="30" fill="#3E2723" />
<rect x="480" y="810" width="30" height="30" fill="#3E2723" />
<rect x="510" y="810" width="30" height="30" fill="#000000" />
<rect x="540" y="810" width="30" height="30" fill="#C7B8B2" />
<rect x="570" y="810" width="30" height="30" fill="#A1887F" />
<rect x="600" y="810" width="30" height="30" fill="#A1887F" />
<rect x="630" y="810" width="30" height="30" fill="#000000" />
<rect x="660" y="810" width="30" height="30" fill="#A1887F" />
<rect x="690" y="810" width="30" height="30" fill="#C7B8B2" />
<rect x="720" y="810" width="30" height="30" fill="#C7B8B2" />
<rect x="750" y="810" width="30" height="30" fill="#C7B8B2" />
<rect x="780" y="810" width="30" height="30" fill="#A1887F" />
<rect x="810" y="810" width="30" height="30" fill="#000000" />
<rect x="30" y="840" width="30" height="30" fill="#000000" />
<rect x="60" y="840" width="30" height="30" fill="#A1887F" />
<rect x="90" y="840" width="30" height="30" fill="#C7B8B2" />
<rect x="120" y="840" width="30" height="30" fill="#C7B8B2" />
<rect x="150" y="840" width="30" height="30" fill="#C7B8B2" />
<rect x="180" y="840" width="30" height="30" fill="#A1887F" />
<rect x="210" y="840" width="30" height="30" fill="#000000" />
<rect x="240" y="840" width="30" height="30" fill="#A1887F" />
<rect x="270" y="840" width="30" height="30" fill="#C7B8B2" />
<rect x="300" y="840" width="30" height="30" fill="#C7B8B2" />
<rect x="330" y="840" width="30" height="30" fill="#000000" />
<rect x="360" y="840" width="30" height="30" fill="#5D4037" />
<rect x="390" y="840" width="30" height="30" fill="#5D4037" />
<rect x="420" y="840" width="30" height="30" fill="#3E2723" />
<rect x="450" y="840" width="30" height="30" fill="#5D4037" />
<rect x="480" y="840" width="30" height="30" fill="#5D4037" />
<rect x="510" y="840" width="30" height="30" fill="#000000" />
<rect x="540" y="840" width="30" height="30" fill="#C7B8B2" />
<rect x="570" y="840" width="30" height="30" fill="#C7B8B2" />
<rect x="600" y="840" width="30" height="30" fill="#A1887F" />
<rect x="630" y="840" width="30" height="30" fill="#000000" />
<rect x="660" y="840" width="30" height="30" fill="#A1887F" />
<rect x="690" y="840" width="30" height="30" fill="#C7B8B2" />
<rect x="720" y="840" width="30" height="30" fill="#C7B8B2" />
<rect x="750" y="840" width="30" height="30" fill="#C7B8B2" />
<rect x="780" y="840" width="30" height="30" fill="#A1887F" />
<rect x="810" y="840" width="30" height="30" fill="#000000" />
<rect x="30" y="870" width="30" height="30" fill="#000000" />
<rect x="60" y="870" width="30" height="30" fill="#A1887F" />
<rect x="90" y="870" width="30" height="30" fill="#A1887F" />
<rect x="120" y="870" width="30" height="30" fill="#C7B8B2" />
<rect x="150" y="870" width="30" height="30" fill="#A1887F" />
<rect x="180" y="870" width="30" height="30" fill="#A1887F" />
<rect x="210" y="870" width="30" height="30" fill="#000000" />
<rect x="240" y="870" width="30" height="30" fill="#A1887F" />
<rect x="270" y="870" width="30" height="30" fill="#A1887F" />
<rect x="300" y="870" width="30" height="30" fill="#A1887F" />
<rect x="330" y="870" width="30" height="30" fill="#000000" />
<rect x="360" y="870" width="30" height="30" fill="#5D4037" />
<rect x="390" y="870" width="30" height="30" fill="#5D4037" />
<rect x="420" y="870" width="30" height="30" fill="#3E2723" />
<rect x="450" y="870" width="30" height="30" fill="#5D4037" />
<rect x="480" y="870" width="30" height="30" fill="#5D4037" />
<rect x="510" y="870" width="30" height="30" fill="#000000" />
<rect x="540" y="870" width="30" height="30" fill="#A1887F" />
<rect x="570" y="870" width="30" height="30" fill="#A1887F" />
<rect x="600" y="870" width="30" height="30" fill="#A1887F" />
<rect x="630" y="870" width="30" height="30" fill="#000000" />
<rect x="660" y="870" width="30" height="30" fill="#A1887F" />
<rect x="690" y="870" width="30" height="30" fill="#A1887F" />
<rect x="720" y="870" width="30" height="30" fill="#C7B8B2" />
<rect x="750" y="870" width="30" height="30" fill="#A1887F" />
<rect x="780" y="870" width="30" height="30" fill="#A1887F" />
<rect x="810" y="870" width="30" height="30" fill="#000000" />
<rect x="30" y="900" width="30" height="30" fill="#000000" />
<rect x="60" y="900" width="30" height="30" fill="#A1887F" />
<rect x="90" y="900" width="30" height="30" fill="#A1887F" />
<rect x="120" y="900" width="30" height="30" fill="#A1887F" />
<rect x="150" y="900" width="30" height="30" fill="#A1887F" />
<rect x="180" y="900" width="30" height="30" fill="#A1887F" />
<rect x="210" y="900" width="30" height="30" fill="#000000" />
<rect x="240" y="900" width="30" height="30" fill="#000000" />
<rect x="270" y="900" width="30" height="30" fill="#000000" />
<rect x="300" y="900" width="30" height="30" fill="#000000" />
<rect x="330" y="900" width="30" height="30" fill="#000000" />
<rect x="360" y="900" width="30" height="30" fill="#000000" />
<rect x="390" y="900" width="30" height="30" fill="#000000" />
<rect x="420" y="900" width="30" height="30" fill="#000000" />
<rect x="450" y="900" width="30" height="30" fill="#000000" />
<rect x="480" y="900" width="30" height="30" fill="#000000" />
<rect x="510" y="900" width="30" height="30" fill="#000000" />
<rect x="540" y="900" width="30" height="30" fill="#000000" />
<rect x="570" y="900" width="30" height="30" fill="#000000" />
<rect x="600" y="900" width="30" height="30" fill="#000000" />
<rect x="630" y="900" width="30" height="30" fill="#000000" />
<rect x="660" y="900" width="30" height="30" fill="#A1887F" />
<rect x="690" y="900" width="30" height="30" fill="#A1887F" />
<rect x="720" y="900" width="30" height="30" fill="#A1887F" />
<rect x="750" y="900" width="30" height="30" fill="#A1887F" />
<rect x="780" y="900" width="30" height="30" fill="#A1887F" />
<rect x="810" y="900" width="30" height="30" fill="#000000" />
<rect x="60" y="930" width="30" height="30" fill="#000000" />
<rect x="90" y="930" width="30" height="30" fill="#000000" />
<rect x="120" y="930" width="30" height="30" fill="#000000" />
<rect x="150" y="930" width="30" height="30" fill="#000000" />
<rect x="180" y="930" width="30" height="30" fill="#000000" />
<rect x="660" y="930" width="30" height="30" fill="#000000" />
<rect x="690" y="930" width="30" height="30" fill="#000000" />
<rect x="720" y="930" width="30" height="30" fill="#000000" />
<rect x="750" y="930" width="30" height="30" fill="#000000" />
<rect x="780" y="930" width="30" height="30" fill="#000000" />
</svg>