<?xml version="1.0" encoding="UTF-8" ?>
<svg version="1.1" width="120" height="420" xmlns="http://www.w3.org/2000/svg">
<rect x="30" y="0" width="30" height="30" fill="#000000" />
<rect x="60" y="0" width="30" height="30" fill="#000000" />
<rect x="0" y="30" width="30" height="30" fill="#000000" />
<rect x="30" y="30" width="30" height="30" fill="#E0E0E0" />
<rect x="60" y="30" width="30" height="30" fill="#FFFFFF" />
<rect x="90" y="30" width="30" height="30" fill="#000000" />
<rect x="0" y="60" width="30" height="30" fill="#000000" />
<rect x="30" y="60" width="30" height="30" fill="#E0E0E0" />
<rect x="60" y="60" width="30" height="30" fill="#FFFFFF" />
<rect x="90" y="60" width="30" height="30" fill="#000000" />
<rect x="0" y="90" width="30" height="30" fill="#000000" />
<rect x="30" y="90" width="30" height="30" fill="#E0E0E0" />
<rect x="60" y="90" width="30" height="30" fill="#FFFFFF" />
<rect x="90" y="90" width="30" height="30" fill="#000000" />
<rect x="0" y="120" width="30" height="30" fill="#000000" />
<rect x="30" y="120" width="30" height="30" fill="#E0E0E0" />
<rect x="60" y="120" width="30" height="30" fill="#FFFFFF" />
<rect x="90" y="120" width="30" height="30" fill="#000000" />
<rect x="0" y="150" width="30" height="30" fill="#000000" />
<rect x="30" y="150" width="30" height="30" fill="#E0E0E0" />
<rect x="60" y="150" width="30" height="30" fill="#FFFFFF" />
<rect x="90" y="150" width="30" height="30" fill="#000000" />
<rect x="0" y="180" width="30" height="30" fill="#000000" />
<rect x="30" y="180" width="30" height="30" fill="#E0E0E0" />
<rect x="60" y="180" width="30" height="30" fill="#FFFFFF" />
<rect x="90" y="180" width="30" height="30" fill="#000000" />
<rect x="0" y="210" width="30" height="30" fill="#000000" />
<rect x="30" y="210" width="30" height="30" fill="#E0E0E0" />
<rect x="60" y="210" width="30" height="30" fill="#FFFFFF" />
<rect x="90" y="210" width="30" height="30" fill="#000000" />
<rect x="0" y="240" width="30" height="30" fill="#000000" />
<rect x="30" y="240" width="30" height="30" fill="#E0E0E0" />
<rect x="60" y="240" width="30" height="30" fill="#FFFFFF" />
<rect x="90" y="240" width="30" height="30" fill="#000000" />
<rect x="0" y="270" width="30" height="30" fill="#000000" />
<rect x="30" y="270" width="30" height="30" fill="#E0E0E0" />
<rect x="60" y="270" width="30" height="30" fill="#FFFFFF" />
<rect x="90" y="270" width="30" height="30" fill="#000000" />
<rect x="0" y="300" width="30" height="30" fill="#000000" />
<rect x="30" y="300" width="30" height="30" fill="#E0E0E0" />
<rect x="60" y="300" width="30" height="30" fill="#FFFFFF" />
<rect x="90" y="300" width="30" height="30" fill="#000000" />
<rect x="0" y="330" width="30" height="30" fill="#000000" />
<rect x="30" y="330" width="30" height="30" fill="#E0E0E0" />
<rect x="60" y="330" width="30" height="30" fill="#FFFFFF" />
<rect x="90" y="330" width="30" height="30" fill="#000000" />
<rect x="0" y="360" width="30" height="30" fill="#000000" />
<rect x="30" y="360" width="30" height="30" fill="#E0E0E0" />
<rect x="60" y="360" width="30" height="30" fill="#E0E0E0" />
<rect x="90" y="360" width="30" height="30" fill="#000000" />
<rect x="30" y="390" width="30" height="30" fill="#000000" />
<rect x="60" y="390" width="30" height="30" fill="#000000" />
</svg>