<?xml version="1.0" encoding="UTF-8" ?>
<svg version="1.1" width="480" height="540" xmlns="http://www.w3.org/2000/svg">
<rect x="270" y="0" width="30" height="30" fill="#000000" />
<rect x="300" y="0" width="30" height="30" fill="#000000" />
<rect x="330" y="0" width="30" height="30" fill="#000000" />
<rect x="360" y="0" width="30" height="30" fill="#000000" />
<rect x="210" y="30" width="30" height="30" fill="#000000" />
<rect x="240" y="30" width="30" height="30" fill="#000000" />
<rect x="270" y="30" width="30" height="30" fill="#673AB7" />
<rect x="300" y="30" width="30" height="30" fill="#673AB7" />
<rect x="330" y="30" width="30" height="30" fill="#673AB7" />
<rect x="360" y="30" width="30" height="30" fill="#000000" />
<rect x="30" y="60" width="30" height="30" fill="#000000" />
<rect x="60" y="60" width="30" height="30" fill="#000000" />
<rect x="90" y="60" width="30" height="30" fill="#000000" />
<rect x="120" y="60" width="30" height="30" fill="#000000" />
<rect x="180" y="60" width="30" height="30" fill="#000000" />
<rect x="210" y="60" width="30" height="30" fill="#673AB7" />
<rect x="240" y="60" width="30" height="30" fill="#673AB7" />
<rect x="270" y="60" width="30" height="30" fill="#673AB7" />
<rect x="300" y="60" width="30" height="30" fill="#673AB7" />
<rect x="330" y="60" width="30" height="30" fill="#000000" />
<rect x="0" y="90" width="30" height="30" fill="#000000" />
<rect x="30" y="90" width="30" height="30" fill="#8D6E63" />
<rect x="60" y="90" width="30" height="30" fill="#8D6E63" />
<rect x="90" y="90" width="30" height="30" fill="#8D6E63" />
<rect x="120" y="90" width="30" height="30" fill="#8D6E63" />
<rect x="150" y="90" width="30" height="30" fill="#000000" />
<rect x="180" y="90" width="30" height="30" fill="#673AB7" />
<rect x="210" y="90" width="30" height="30" fill="#673AB7" />
<rect x="240" y="90" width="30" height="30" fill="#673AB7" />
<rect x="270" y="90" width="30" height="30" fill="#673AB7" />
<rect x="300" y="90" width="30" height="30" fill="#673AB7" />
<rect x="330" y="90" width="30" height="30" fill="#000000" />
<rect x="0" y="120" width="30" height="30" fill="#000000" />
<rect x="30" y="120" width="30" height="30" fill="#8D6E63" />
<rect x="60" y="120" width="30" height="30" fill="#000000" />
<rect x="90" y="120" width="30" height="30" fill="#000000" />
<rect x="120" y="120" width="30" height="30" fill="#6D4C41" />
<rect x="150" y="120" width="30" height="30" fill="#000000" />
<rect x="180" y="120" width="30" height="30" fill="#673AB7" />
<rect x="210" y="120" width="30" height="30" fill="#673AB7" />
<rect x="240" y="120" width="30" height="30" fill="#673AB7" />
<rect x="270" y="120" width="30" height="30" fill="#673AB7" />
<rect x="300" y="120" width="30" height="30" fill="#673AB7" />
<rect x="330" y="120" width="30" height="30" fill="#673AB7" />
<rect x="360" y="120" width="30" height="30" fill="#000000" />
<rect x="0" y="150" width="30" height="30" fill="#000000" />
<rect x="30" y="150" width="30" height="30" fill="#8D6E63" />
<rect x="60" y="150" width="30" height="30" fill="#000000" />
<rect x="90" y="150" width="30" height="30" fill="#6D4C41" />
<rect x="120" y="150" width="30" height="30" fill="#6D4C41" />
<rect x="150" y="150" width="30" height="30" fill="#000000" />
<rect x="180" y="150" width="30" height="30" fill="#673AB7" />
<rect x="210" y="150" width="30" height="30" fill="#673AB7" />
<rect x="240" y="150" width="30" height="30" fill="#673AB7" />
<rect x="270" y="150" width="30" height="30" fill="#673AB7" />
<rect x="300" y="150" width="30" height="30" fill="#673AB7" />
<rect x="330" y="150" width="30" height="30" fill="#512DA8" />
<rect x="360" y="150" width="30" height="30" fill="#000000" />
<rect x="390" y="150" width="30" height="30" fill="#000000" />
<rect x="30" y="180" width="30" height="30" fill="#000000" />
<rect x="60" y="180" width="30" height="30" fill="#8D6E63" />
<rect x="90" y="180" width="30" height="30" fill="#000000" />
<rect x="120" y="180" width="30" height="30" fill="#000000" />
<rect x="150" y="180" width="30" height="30" fill="#673AB7" />
<rect x="180" y="180" width="30" height="30" fill="#512DA8" />
<rect x="210" y="180" width="30" height="30" fill="#512DA8" />
<rect x="240" y="180" width="30" height="30" fill="#512DA8" />
<rect x="270" y="180" width="30" height="30" fill="#512DA8" />
<rect x="300" y="180" width="30" height="30" fill="#512DA8" />
<rect x="330" y="180" width="30" height="30" fill="#673AB7" />
<rect x="360" y="180" width="30" height="30" fill="#673AB7" />
<rect x="390" y="180" width="30" height="30" fill="#673AB7" />
<rect x="420" y="180" width="30" height="30" fill="#000000" />
<rect x="450" y="180" width="30" height="30" fill="#000000" />
<rect x="30" y="210" width="30" height="30" fill="#000000" />
<rect x="60" y="210" width="30" height="30" fill="#8D6E63" />
<rect x="90" y="210" width="30" height="30" fill="#6D4C41" />
<rect x="120" y="210" width="30" height="30" fill="#000000" />
<rect x="150" y="210" width="30" height="30" fill="#673AB7" />
<rect x="180" y="210" width="30" height="30" fill="#673AB7" />
<rect x="210" y="210" width="30" height="30" fill="#673AB7" />
<rect x="240" y="210" width="30" height="30" fill="#673AB7" />
<rect x="270" y="210" width="30" height="30" fill="#673AB7" />
<rect x="300" y="210" width="30" height="30" fill="#673AB7" />
<rect x="330" y="210" width="30" height="30" fill="#673AB7" />
<rect x="360" y="210" width="30" height="30" fill="#000000" />
<rect x="390" y="210" width="30" height="30" fill="#000000" />
<rect x="30" y="240" width="30" height="30" fill="#000000" />
<rect x="60" y="240" width="30" height="30" fill="#8D6E63" />
<rect x="90" y="240" width="30" height="30" fill="#6D4C41" />
<rect x="120" y="240" width="30" height="30" fill="#000000" />
<rect x="150" y="240" width="30" height="30" fill="#000000" />
<rect x="180" y="240" width="30" height="30" fill="#000000" />
<rect x="210" y="240" width="30" height="30" fill="#000000" />
<rect x="240" y="240" width="30" height="30" fill="#000000" />
<rect x="270" y="240" width="30" height="30" fill="#000000" />
<rect x="300" y="240" width="30" height="30" fill="#000000" />
<rect x="330" y="240" width="30" height="30" fill="#000000" />
<rect x="360" y="240" width="30" height="30" fill="#000000" />
<rect x="390" y="240" width="30" height="30" fill="#000000" />
<rect x="30" y="270" width="30" height="30" fill="#000000" />
<rect x="60" y="270" width="30" height="30" fill="#8D6E63" />
<rect x="90" y="270" width="30" height="30" fill="#6D4C41" />
<rect x="120" y="270" width="30" height="30" fill="#000000" />
<rect x="150" y="270" width="30" height="30" fill="#FFEDB5" />
<rect x="180" y="270" width="30" height="30" fill="#000000" />
<rect x="210" y="270" width="30" height="30" fill="#FFEDB5" />
<rect x="240" y="270" width="30" height="30" fill="#FFEDB5" />
<rect x="270" y="270" width="30" height="30" fill="#FFEDB5" />
<rect x="300" y="270" width="30" height="30" fill="#000000" />
<rect x="330" y="270" width="30" height="30" fill="#FFEDB5" />
<rect x="360" y="270" width="30" height="30" fill="#000000" />
<rect x="390" y="270" width="30" height="30" fill="#BDBDBD" />
<rect x="420" y="270" width="30" height="30" fill="#000000" />
<rect x="30" y="300" width="30" height="30" fill="#000000" />
<rect x="60" y="300" width="30" height="30" fill="#000000" />
<rect x="90" y="300" width="30" height="30" fill="#000000" />
<rect x="120" y="300" width="30" height="30" fill="#000000" />
<rect x="150" y="300" width="30" height="30" fill="#000000" />
<rect x="180" y="300" width="30" height="30" fill="#E0E0E0" />
<rect x="210" y="300" width="30" height="30" fill="#000000" />
<rect x="240" y="300" width="30" height="30" fill="#000000" />
<rect x="270" y="300" width="30" height="30" fill="#000000" />
<rect x="300" y="300" width="30" height="30" fill="#E0E0E0" />
<rect x="330" y="300" width="30" height="30" fill="#000000" />
<rect x="360" y="300" width="30" height="30" fill="#000000" />
<rect x="390" y="300" width="30" height="30" fill="#BDBDBD" />
<rect x="420" y="300" width="30" height="30" fill="#000000" />
<rect x="30" y="330" width="30" height="30" fill="#000000" />
<rect x="60" y="330" width="30" height="30" fill="#FFEDB5" />
<rect x="90" y="330" width="30" height="30" fill="#FFEDB5" />
<rect x="120" y="330" width="30" height="30" fill="#000000" />
<rect x="150" y="330" width="30" height="30" fill="#000000" />
<rect x="180" y="330" width="30" height="30" fill="#E0E0E0" />
<rect x="210" y="330" width="30" height="30" fill="#E0E0E0" />
<rect x="240" y="330" width="30" height="30" fill="#E0E0E0" />
<rect x="270" y="330" width="30" height="30" fill="#E0E0E0" />
<rect x="300" y="330" width="30" height="30" fill="#E0E0E0" />
<rect x="330" y="330" width="30" height="30" fill="#000000" />
<rect x="360" y="330" width="30" height="30" fill="#673AB7" />
<rect x="390" y="330" width="30" height="30" fill="#000000" />
<rect x="420" y="330" width="30" height="30" fill="#000000" />
<rect x="30" y="360" width="30" height="30" fill="#000000" />
<rect x="60" y="360" width="30" height="30" fill="#FFEDB5" />
<rect x="90" y="360" width="30" height="30" fill="#FFE082" />
<rect x="120" y="360" width="30" height="30" fill="#000000" />
<rect x="150" y="360" width="30" height="30" fill="#000000" />
<rect x="180" y="360" width="30" height="30" fill="#BDBDBD" />
<rect x="210" y="360" width="30" height="30" fill="#E0E0E0" />
<rect x="240" y="360" width="30" height="30" fill="#E0E0E0" />
<rect x="270" y="360" width="30" height="30" fill="#E0E0E0" />
<rect x="300" y="360" width="30" height="30" fill="#BDBDBD" />
<rect x="330" y="360" width="30" height="30" fill="#000000" />
<rect x="360" y="360" width="30" height="30" fill="#673AB7" />
<rect x="390" y="360" width="30" height="30" fill="#673AB7" />
<rect x="420" y="360" width="30" height="30" fill="#000000" />
<rect x="60" y="390" width="30" height="30" fill="#000000" />
<rect x="90" y="390" width="30" height="30" fill="#000000" />
<rect x="120" y="390" width="30" height="30" fill="#673AB7" />
<rect x="150" y="390" width="30" height="30" fill="#673AB7" />
<rect x="180" y="390" width="30" height="30" fill="#000000" />
<rect x="210" y="390" width="30" height="30" fill="#BDBDBD" />
<rect x="240" y="390" width="30" height="30" fill="#BDBDBD" />
<rect x="270" y="390" width="30" height="30" fill="#BDBDBD" />
<rect x="300" y="390" width="30" height="30" fill="#000000" />
<rect x="330" y="390" width="30" height="30" fill="#673AB7" />
<rect x="360" y="390" width="30" height="30" fill="#673AB7" />
<rect x="390" y="390" width="30" height="30" fill="#673AB7" />
<rect x="420" y="390" width="30" height="30" fill="#000000" />
<rect x="60" y="420" width="30" height="30" fill="#000000" />
<rect x="90" y="420" width="30" height="30" fill="#673AB7" />
<rect x="120" y="420" width="30" height="30" fill="#673AB7" />
<rect x="150" y="420" width="30" height="30" fill="#673AB7" />
<rect x="180" y="420" width="30" height="30" fill="#512DA8" />
<rect x="210" y="420" width="30" height="30" fill="#000000" />
<rect x="240" y="420" width="30" height="30" fill="#000000" />
<rect x="270" y="420" width="30" height="30" fill="#000000" />
<rect x="300" y="420" width="30" height="30" fill="#512DA8" />
<rect x="330" y="420" width="30" height="30" fill="#673AB7" />
<rect x="360" y="420" width="30" height="30" fill="#673AB7" />
<rect x="390" y="420" width="30" height="30" fill="#673AB7" />
<rect x="420" y="420" width="30" height="30" fill="#000000" />
<rect x="60" y="450" width="30" height="30" fill="#000000" />
<rect x="90" y="450" width="30" height="30" fill="#673AB7" />
<rect x="120" y="450" width="30" height="30" fill="#673AB7" />
<rect x="150" y="450" width="30" height="30" fill="#512DA8" />
<rect x="180" y="450" width="30" height="30" fill="#673AB7" />
<rect x="210" y="450" width="30" height="30" fill="#673AB7" />
<rect x="240" y="450" width="30" height="30" fill="#673AB7" />
<rect x="270" y="450" width="30" height="30" fill="#673AB7" />
<rect x="300" y="450" width="30" height="30" fill="#673AB7" />
<rect x="330" y="450" width="30" height="30" fill="#512DA8" />
<rect x="360" y="450" width="30" height="30" fill="#673AB7" />
<rect x="390" y="450" width="30" height="30" fill="#673AB7" />
<rect x="420" y="450" width="30" height="30" fill="#000000" />
<rect x="90" y="480" width="30" height="30" fill="#000000" />
<rect x="120" y="480" width="30" height="30" fill="#000000" />
<rect x="150" y="480" width="30" height="30" fill="#512DA8" />
<rect x="180" y="480" width="30" height="30" fill="#673AB7" />
<rect x="210" y="480" width="30" height="30" fill="#673AB7" />
<rect x="240" y="480" width="30" height="30" fill="#673AB7" />
<rect x="270" y="480" width="30" height="30" fill="#673AB7" />
<rect x="300" y="480" width="30" height="30" fill="#673AB7" />
<rect x="330" y="480" width="30" height="30" fill="#512DA8" />
<rect x="360" y="480" width="30" height="30" fill="#000000" />
<rect x="390" y="480" width="30" height="30" fill="#000000" />
<rect x="150" y="510" width="30" height="30" fill="#000000" />
<rect x="180" y="510" width="30" height="30" fill="#000000" />
<rect x="210" y="510" width="30" height="30" fill="#000000" />
<rect x="240" y="510" width="30" height="30" fill="#000000" />
<rect x="270" y="510" width="30" height="30" fill="#000000" />
<rect x="300" y="510" width="30" height="30" fill="#000000" />
<rect x="330" y="510" width="30" height="30" fill="#000000" />
</svg>